<?xml version="1.0" encoding="utf-8"?>
<!-- Generator: Adobe Illustrator 26.0.2, SVG Export Plug-In . SVG Version: 6.00 Build 0)  -->
<svg version="1.1" id="Layer_1" xmlns="http://www.w3.org/2000/svg" xmlns:xlink="http://www.w3.org/1999/xlink" x="0px" y="0px"
	 viewBox="0 0 1000 500" style="enable-background:new 0 0 1000 500;" xml:space="preserve">
<style type="text/css">
	.st0{fill:#39B4FF;}
</style>
<path class="st0" d="M593,146.6c-34.8-29.9-75.3-40.3-120.2-30.7C412,128.8,365.5,182.6,365,249.4c-0.1,8-0.1,16-0.1,23.9v88
	c0,5.4,0,10.7,0,16.2c0.1,5.6,4.7,10,10.3,10H393c11.2,0,22.2,0,33.6,0h65.7c3.1,0,6.1-0.1,9.2-0.1c8.4-0.1,16.8-0.8,25.1-2.3
	c32-5.6,58.9-20.8,79.9-45.4c28-32.9,38.4-71.2,31.2-113.9C632.4,194.2,617.3,167.5,593,146.6z M551.8,326.2l-49.5-26l-49.5,26
	l9.5-55.1l-40-39l55.3-8l24.7-50.1l24.7,50.1l55.3,8l-40,39L551.8,326.2z"/>
</svg>
