<?xml version="1.0" encoding="utf-8"?>
<!-- Generator: Adobe Illustrator 26.0.2, SVG Export Plug-In . SVG Version: 6.00 Build 0)  -->
<svg version="1.1" id="Layer_1" xmlns="http://www.w3.org/2000/svg" xmlns:xlink="http://www.w3.org/1999/xlink" x="0px" y="0px"
	 viewBox="0 0 1000 500" style="enable-background:new 0 0 1000 500;" xml:space="preserve">
<style type="text/css">
	.st0{fill:#43749C;}
	.st1{opacity:0.5;fill:#43749C;}
</style>
<g>
	<path class="st0" d="M758.5,308.5c0,8.4-3.2,16.7-9.6,23.1c-12.8,12.8-33.4,12.8-46.2,0l-91.1-91.1L523.1,329
		c-12.8,12.8-33.4,12.8-46.2,0c-12.8-12.8-12.8-33.4,0-46.2l111.6-111.6c6.1-6.1,14.4-9.6,23.1-9.6c8.7,0,17,3.4,23.1,9.6
		l114.2,114.2C755.3,291.7,758.5,300.1,758.5,308.5z"/>
	<path class="st1" d="M532.6,305.7c0,8.4-3.2,16.7-9.6,23.1c-12.8,12.8-33.4,12.8-46.2,0l-91.1-91.1l-88.5,88.5
		c-12.8,12.8-33.4,12.8-46.2,0c-12.8-12.8-12.8-33.4,0-46.2l111.6-111.6c6.1-6.1,14.4-9.6,23.1-9.6s17,3.4,23.1,9.6L523,282.6
		C529.4,289,532.6,297.4,532.6,305.7z"/>
</g>
</svg>
