<?xml version="1.0" encoding="utf-8"?>
<!-- Generator: Adobe Illustrator 26.0.2, SVG Export Plug-In . SVG Version: 6.00 Build 0)  -->
<svg version="1.1" id="Layer_1" xmlns="http://www.w3.org/2000/svg" xmlns:xlink="http://www.w3.org/1999/xlink" x="0px" y="0px"
	 viewBox="0 0 173.7 205.2" style="enable-background:new 0 0 173.7 205.2;" xml:space="preserve">
<style type="text/css">
	.st0{fill:#3AB4FF;}
</style>
<path class="st0" d="M160.6,108c-7.7-12.7-18.6-22.8-31.7-29.6c5.6-8.3,8.5-17.9,8.5-28.1C137.5,22.6,114.9,0,87.1,0
	S36.7,22.6,36.7,50.4c0,9.9,3,19.7,8.5,28C16.8,92.8,0,122.3,0,158.4v46.8h173.7v-46.6C173.9,140,169.4,122.5,160.6,108z M73.3,50.4
	c0-7.5,6.3-13.8,13.8-13.8s13.8,6.3,13.8,13.8c0,7.5-6.3,13.8-13.8,13.8S73.3,57.8,73.3,50.4z M41.3,163.9v-6
	c0-29.7,17.3-47.4,46.3-47.4c28.7,0,45.8,17.7,45.8,47.4v6H41.3z"/>
</svg>
