<?xml version="1.0" encoding="utf-8"?>
<!-- Generator: Adobe Illustrator 26.0.2, SVG Export Plug-In . SVG Version: 6.00 Build 0)  -->
<svg version="1.1" id="Layer_1" xmlns="http://www.w3.org/2000/svg" xmlns:xlink="http://www.w3.org/1999/xlink" x="0px" y="0px"
	 viewBox="0 0 1000 500" style="enable-background:new 0 0 1000 500;" xml:space="preserve">
<style type="text/css">
	.st0{fill:#EC4241;}
	.st1{fill:#D6DFEE;}
	.st2{fill:#C42C37;}
	.st3{fill:#C0CEE7;}
</style>
<g>
	<path class="st0" d="M553.8,310.1c-0.1,5-0.1,10-0.2,14.9c-1.7,0.9-2.8-0.4-4-1.2c-13-8.6-25.1-18.4-37-28.5
		c-12.1-10.3-23.2-21.5-34.5-32.6c-9.5-9.3-18.9-18.8-27.3-29.2c-23.6-29.2-20.4-72.9,7.4-98.3c14.6-13.4,32.2-18.8,52-17.7
		c2.3,0.1,4.5,1.6,6.9,1c30.8,9.5,57,25.6,74.3,53.8c7.1,11.6,10.2,24.6,10.3,38.4c0.2,30.5,6.5,59.6,19.6,87.2
		c2.3,4.8,4.6,9.6,6.8,14.5c0.4,2.7-2.2,2.9-3.5,4.2c-2.8,1.6-4.8,4.1-7.1,6.2c-1.1,1-2,2.6-3.8,2.5c-14.2-7.6-29.4-12.3-45.4-14.4
		c-2.8-0.4-5.7,0.1-8.5-0.9c-1.5-1.8-1.1-4-1.1-6.1c0.4-18.7-0.9-37.3-4.5-55.8c-1.6-8.3-3.8-16.5-6.2-24.6c-1-3.2-2.7-3.3-5.4-2.3
		c-4.4,1.5-4.9,1.9-3.9,5.2c4.5,14.9,7.6,30.2,9.1,45.7c1,9.8,1.4,19.6,1,29.5C548.5,305.8,548.9,309.2,553.8,310.1z"/>
	<path class="st1" d="M320.9,184.3c4.7-3.7,10.3-5.8,15.6-8.4c9.8-4.8,19.7-9.3,29.2-14.7c0.7-0.4,1.6-0.6,2.4-0.8
		c1.8,0.5,2.4,2.1,3.1,3.6c11.8,23.9,26.2,46.1,43,66.7c11.8,14.4,24.7,27.6,38.6,39.9c24.2,21.5,51,39,80,53.2
		c3.6,1.8,7.9,2.5,10.7,5.8c0.5,1.4,0,2.7-0.4,4c-6.6,18.5-25.9,28.3-44.7,22.3c-22.7-7.2-44-17.3-64.2-29.9
		c-21.7-13.5-40.8-30.2-58.1-48.9c-14.6-15.8-26.8-33.4-37.2-52.2C331.8,211.8,325.7,198.4,320.9,184.3z"/>
	<path class="st2" d="M543.2,329.7c-12.7-6.2-25.5-12.3-37.7-19.5c-58.2-34.8-102.7-82.5-133.7-142.8c-1.2-2.3-2.4-4.6-3.7-6.9
		c23.2-25,51.5-40.7,85.3-46.1c21.4-3.4,42.7-2.1,63.5,4.4c-1.9,1.3-3.8,0.1-5.7,0c-18-1-34.5,3.1-48.8,14.4
		c-15.4,12.1-23.8,28.3-26,47.4c-2.2,19.3,2.5,37.3,15.1,52.6c5.4,6.5,11.2,12.7,17.1,18.7c9.6,9.6,18.9,19.4,28.8,28.7
		c16.9,15.9,34.5,31,54.1,43.7c0.6,0.4,1.3,0.7,2,1c0,2.9,0,5.9,0,8.8C549.4,334.2,546.2,332.2,543.2,329.7z"/>
	<path class="st3" d="M543.2,329.7c3.5,1.4,6.9,2.8,10.4,4.2c-3.7,17.2-7.5,34.4-11.2,51.6c-0.4,2-1.3,2.3-3.5,1.9
		c-30.2-5.6-58.7-16-85.5-30.9c-26.9-14.9-50.5-34.1-71.1-56.8c-14.4-15.9-26.6-33.4-36.9-52.3c-10.5-19.2-18.5-39.3-24.3-60.4
		c-0.2-0.9-1.2-1.8-0.1-2.7c2.9,3,3.4,7.1,4.9,10.7c10.1,25.7,24.2,49.1,41.6,70.4c16.3,20,35.1,37.5,56.3,52.4
		c23.1,16.2,48.1,28.4,74.9,37.2C518.1,361.3,539.6,349,543.2,329.7z"/>
	<path class="st1" d="M624,316.1c0.9-1.7,3.7-1.4,4-3.7c1.4,0.7,2.6-0.2,3.9-0.6c14.3-4.2,27.3-1.6,37.7,9.2
		c10.7,11.2,12.5,24.7,7.2,39.1c-0.7,2-1.8,3.8-3.3,5.3c-7.9,5.9-16.7,6.6-25.9,4.6c-21.4-4.6-34.1-27.3-27-47.9
		C621.3,319.9,622.4,317.9,624,316.1z"/>
	<path class="st3" d="M624,316.1c-2.6,6.2-4.7,12.4-4.6,19.4c0.3,15.5,13.5,30.9,28.7,33.8c9,1.8,17.2-0.3,25.2-3.8
		c-8.1,14.4-28.8,20.6-44.4,13.4c-19.5-9.1-26.9-30.6-17.1-49.8c0.6-1.2,1.1-2.5,1.7-3.7C617.1,322.3,619.6,318.1,624,316.1z"/>
	<path class="st2" d="M553.8,310.1c-6.1-0.1-6.2-0.1-6-6.3c0.5-21.9-1.5-43.6-6.8-64.9c-1.1-4.6-2.4-9.1-3.9-13.6
		c-0.8-2.3-0.4-3.3,1.9-4.1c8.3-3,8.5-3.1,11,5.4c4.1,13.9,6.8,28.1,8.4,42.5c1.5,13.6,1.3,27.3,1.4,40.9
		C557.7,310.1,555.7,310.1,553.8,310.1z"/>
</g>
</svg>
